<?xml version="1.0" encoding="UTF-8" standalone="no"?>
<!-- Created with Inkscape (http://www.inkscape.org/) -->
<svg
   xmlns:svg="http://www.w3.org/2000/svg"
   xmlns="http://www.w3.org/2000/svg"
   version="1.0"
   width="80"
   height="80"
   id="svg3544">
  <defs
     id="defs3546" />
  <g
     id="layer1">
    <path
       d="M 57.63597,6.309 C 69.73497,12.672 77.99997,25.358 77.99997,39.981 C 77.99997,54.604 69.73497,67.33 57.63597,73.654 L 57.63597,69.306 C 62.26297,66.538 66.17697,62.665 69.02497,58.081 L 57.63597,53.458 L 57.63597,46.423 L 70.13097,56.185 C 72.74097,51.363 74.20397,45.869 74.20397,39.98 C 74.20397,27.57 67.55997,16.663 57.63597,10.655 L 57.63597,6.309 L 57.63597,6.309 z M 40.04,2.001 C 46.367,2.001 52.33697,3.543 57.63597,6.309 L 57.63597,10.657 C 52.77197,7.731 47.078,5.993 41.068,5.795 L 45.417,36.899 L 57.63597,46.424 L 57.63597,53.459 L 39.96,46.305 L 22.403,53.498 L 22.403,46.502 L 34.701,36.898 L 39.011,5.794 C 32.921,5.992 27.267,7.731 22.403,10.655 L 22.403,6.309 C 27.663,3.543 33.673,2.001 40.04,2.001 L 40.04,2.001 L 40.04,2.001 z M 57.63597,73.654 C 52.33697,76.42 46.366,78 40.04,78 C 33.674,78 27.664,76.42 22.404,73.693 L 22.404,69.306 C 27.545,72.427 33.594,74.206 40.04,74.206 C 46.446,74.206 52.45697,72.427 57.63597,69.306 L 57.63597,73.654 L 57.63597,73.654 z M 22.404,73.693 C 10.264,67.33 2,54.604 2,39.981 C 2,25.358 10.264,12.672 22.404,6.309 L 22.404,10.657 C 12.439,16.664 5.796,27.532 5.796,39.981 C 5.796,45.869 7.299,51.443 9.909,56.264 L 22.404,46.502 L 22.404,53.498 L 11.055,58.16 C 13.902,62.707 17.777,66.539 22.404,69.306 L 22.404,73.693 L 22.404,73.693 z"
       id="path3524"
       style="fill:#4d4d4d;fill-rule:evenodd" />
  </g>
</svg>
